<svg width="40" height="40" fill="none" xmlns="http://www.w3.org/2000/svg"><g clip-path="url(#clip0)" fill="#3787E3"><path d="M19.999 3.232c.46.345.861.382 2.063.45 3.52.202 5.751.954 8.234 2.777 3.04 2.223 4.946 5.324 5.669 9.217.185 1.008.277 1.864.34 3.153.038.864.068 1.2.265 1.578.277.517.814.86 1.438.918.061.006.122.008.183.008.555 0 1.07-.234 1.398-.643.437-.532.436-1.028.393-2.096-.125-3.308-.848-6.28-2.15-8.833-.928-1.817-1.813-3.007-3.387-4.55-1.678-1.63-2.971-2.543-4.946-3.486C27.407.726 25.927.41 23.76.145a26.949 26.949 0 00-1.832-.132c-1.088-.036-1.514-.007-2.016.44-.386.339-.596.854-.578 1.415.017.556.258 1.052.665 1.365z"/><path d="M30.97 17.532c0 .937.078 1.816 1.001 2.27.254.132.584.198.905.198.287 0 .565-.052.778-.16.373-.191.75-.596.897-.963.188-.473.102-2.167.049-2.645-.25-2.135-.992-4.151-2.145-5.83-2.09-3.035-5.22-4.87-9.303-5.454-1.385-.204-2.414-.276-3.019.647a1.79 1.79 0 00.147 2.225c.447.507 1.088.622 1.654.667 1.623.128 3.44.66 4.631 1.354h.002a8.942 8.942 0 013.32 3.375c.688 1.229 1.084 2.802 1.084 4.316z"/><path d="M27.419 11.807c-.912-.835-1.98-1.359-3.36-1.646a9.564 9.564 0 00-1.186-.144c-.575-.035-.811-.03-1.22.17a1.79 1.79 0 00-.95 1.26c-.11.55.03 1.102.39 1.522.416.475.842.594 1.701.696 1.436.172 2.245.655 2.702 1.614.232.49.363 1.025.44 1.796.078.722.22 1.185.733 1.565.323.244.733.365 1.138.365.443 0 .883-.145 1.203-.43l.004-.003c.663-.6.69-1.343.512-2.503-.278-1.858-.927-3.173-2.107-4.262z"/><path d="M39.996 32.25a3.186 3.186 0 00-.748-1.936c-.449-.53-3.319-2.799-4.6-3.676-.995-.678-2.57-1.632-3.305-2.005-1.087-.54-2.18-.635-3.257-.279a3.695 3.695 0 00-.561.232c-.545.286-.945.736-1.722 1.692-.833 1.006-1.006 1.201-1.004 1.201a3.733 3.733 0 01-.356.183c-.62.282-1.635.05-3.286-.754-1.393-.674-2.645-1.54-4.058-2.805-1.204-1.073-2.414-2.464-3.086-3.543-.934-1.497-1.498-3.23-1.505-4.035 0-.313.138-.763.286-1.011l.066-.067c.043-.043.092-.089.159-.148.232-.208.568-.488.918-.764 1.536-1.21 2.022-1.7 2.282-2.61.252-.841.031-1.878-.694-3.26-1.081-2.061-4.508-6.45-5.938-7.375a4.985 4.985 0 00-.896-.438C8.104.645 7.26.574 6.738.685c-.726.149-1.522.606-3.278 1.882-.963.704-2.447 2.082-2.85 2.74-.95 1.596-.707 2.98.154 5.298a44.022 44.022 0 003.124 6.612l.066.11c.252.436.51.87.78 1.305l.07.11c.27.427.541.854.826 1.279l.448.652c.168.244.334.488.507.73.34.474.69.948 1.052 1.42 3.86 5.025 8.305 9.06 13.59 12.332l.218.136c.767.47 1.583.94 2.426 1.396l.33.177c.871.464 1.7.88 2.533 1.27l.259.118a58.98 58.98 0 002.748 1.195c1.047.423 1.532.552 2.268.552.13 0 .27-.004.422-.011a5.287 5.287 0 001.305-.217c.567-.172 1.135-.46 1.785-.91.114-.077.227-.156.349-.246.144-.106.297-.236.452-.37.741-.641 1.591-1.572 2.276-2.49.365-.49.85-1.2 1.092-1.812a4.1 4.1 0 00.306-1.692z"/></g><defs><clipPath id="clip0"><path fill="#fff" d="M0 0h40v40H0z"/></clipPath></defs></svg>