<svg width="40" height="40" fill="none" xmlns="http://www.w3.org/2000/svg"><g clip-path="url(#clip0)"><path d="M.706 19.286l9.217 3.44L13.491 34.2a1.085 1.085 0 001.723.519l5.137-4.188a1.533 1.533 0 011.869-.053l9.266 6.728a1.086 1.086 0 001.702-.657l6.788-32.652a1.087 1.087 0 00-1.454-1.234L.695 17.254c-.933.36-.925 1.681.011 2.032zm12.21 1.609L30.929 9.801c.323-.2.657.239.379.496l-14.866 13.82a3.081 3.081 0 00-.956 1.843l-.506 3.753c-.067.5-.77.55-.91.066l-1.947-6.844a1.814 1.814 0 01.793-2.04z" fill="#3787E3"/></g><defs><clipPath id="clip0"><path fill="#fff" d="M0 0h40v40H0z"/></clipPath></defs></svg>