<svg width="16" height="16" viewBox="0 0 16 16" fill="none" xmlns="http://www.w3.org/2000/svg">
<path d="M6.87541 7.71081L12.1687 2.41748L13.5827 3.83148L12.6401 4.77415L14.0541 6.18815L11.6974 8.54548L10.2834 7.13148L8.29007 9.12481C8.65711 9.83101 8.75947 10.6452 8.57866 11.4203C8.39784 12.1953 7.94578 12.8802 7.30414 13.3511C6.6625 13.8219 5.87361 14.0478 5.07998 13.9879C4.28636 13.9279 3.54035 13.5861 2.97674 13.0241C2.41284 12.4612 2.06928 11.7148 2.00831 10.9203C1.94734 10.1258 2.173 9.33574 2.64439 8.69329C3.11579 8.05085 3.80172 7.59853 4.5779 7.41829C5.35408 7.23806 6.16915 7.34183 6.87541 7.71081ZM6.27607 11.6095C6.40342 11.4865 6.505 11.3394 6.57487 11.1767C6.64475 11.014 6.68154 10.8391 6.68307 10.662C6.68461 10.485 6.65088 10.3094 6.58384 10.1455C6.51679 9.98168 6.41779 9.83281 6.2926 9.70762C6.16741 9.58243 6.01854 9.48343 5.85468 9.41638C5.69082 9.34934 5.51524 9.31561 5.3382 9.31715C5.16117 9.31869 4.98621 9.35547 4.82353 9.42535C4.66086 9.49522 4.51374 9.5968 4.39074 9.72415C4.14786 9.97562 4.01347 10.3124 4.01651 10.662C4.01955 11.0116 4.15977 11.346 4.40698 11.5932C4.65419 11.8405 4.98861 11.9807 5.3382 11.9837C5.6878 11.9868 6.0246 11.8524 6.27607 11.6095Z" fill="#3787E3"/>
</svg>
