<svg width="14" height="14" viewBox="0 0 14 14" fill="none" xmlns="http://www.w3.org/2000/svg">
<path d="M9.91673 1.75004H12.2501C12.4048 1.75004 12.5531 1.8115 12.6625 1.92089C12.7719 2.03029 12.8334 2.17866 12.8334 2.33337V11.6667C12.8334 11.8214 12.7719 11.9698 12.6625 12.0792C12.5531 12.1886 12.4048 12.25 12.2501 12.25H1.75007C1.59536 12.25 1.44698 12.1886 1.33759 12.0792C1.22819 11.9698 1.16673 11.8214 1.16673 11.6667V2.33337C1.16673 2.17866 1.22819 2.03029 1.33759 1.92089C1.44698 1.8115 1.59536 1.75004 1.75007 1.75004H4.0834V0.583374H5.25007V1.75004H8.75007V0.583374H9.91673V1.75004ZM8.75007 2.91671H5.25007V4.08337H4.0834V2.91671H2.3334V5.25004H11.6667V2.91671H9.91673V4.08337H8.75007V2.91671ZM11.6667 6.41671H2.3334V11.0834H11.6667V6.41671Z" fill="#ABB2B9"/>
</svg>
