<svg xmlns="http://www.w3.org/2000/svg" width="50" height="50"><path d="M46.137 6.55c-.75-.636-1.926-.726-3.145-.237h-.004c-1.281.515-36.261 15.519-37.683 16.132-.258.09-2.524.934-2.29 2.813.208 1.695 2.028 2.398 2.25 2.48l8.891 3.043c.59 1.965 2.766 9.211 3.246 10.758.301.965.79 2.234 1.649 2.496.75.29 1.5.024 1.98-.355l5.438-5.043 8.777 6.843.211.125c.594.266 1.164.399 1.711.399.422 0 .824-.082 1.21-.238 1.317-.54 1.84-1.793 1.895-1.938l6.559-34.074c.398-1.82-.156-2.746-.695-3.203zM22 32l-3 8-3-10 23-17zm0 0" fill="#3498db"/></svg>