<svg xmlns="http://www.w3.org/2000/svg" width="48" height="48"><path d="M45.762 35.203c-1.797-3.234-6.426-7.121-8.336-8.812a1.243 1.243 0 01-.102-1.778c3.645-3.918 6.563-8.422 7.567-11.14.445-1.203-.473-2.473-1.766-2.473h-3.754c-1.234 0-1.96.445-2.305 1.152-3.03 6.211-5.632 8.899-7.453 10.47-1.015.878-2.605.151-2.605-1.188v-8.282a2.086 2.086 0 00-2.098-2.074L18.055 11c-.864 0-1.356.977-.836 1.66l1.133 1.625c.425.567.656 1.25.656 1.953L19 23.555c0 1.273-1.543 1.894-2.46 1.004-3.099-3.02-5.786-9.18-6.755-12.13A2.09 2.09 0 007.801 11l-3.7-.008c-1.386 0-2.398 1.313-2.023 2.637 3.379 11.86 10.309 23.137 22.66 24.36 1.219.12 2.27-.86 2.27-2.071V32.07c0-1.101.863-2.05 1.976-2.078h.118c3.265 0 6.925 4.754 8.207 6.977A2.067 2.067 0 0039.105 38h4.973c1.453 0 2.383-1.54 1.684-2.797zm0 0" fill="#3498db"/></svg>