<?xml version="1.0" encoding="UTF-8"?>
<svg xmlns="http://www.w3.org/2000/svg" xmlns:xlink="http://www.w3.org/1999/xlink" viewBox="0 0 48 48" width="48px" height="48px">
<g id="surface46811813">
<path style=" stroke:none;fill-rule:nonzero;fill:rgb(20.392157%,59.607846%,85.882354%);fill-opacity:1;" d="M 32.804688 18 L 28 18 L 28 14 C 28 11.9375 28.167969 10.636719 31.125 10.636719 L 32.863281 10.636719 C 33.964844 10.636719 34.863281 9.738281 34.863281 8.636719 L 34.863281 6.128906 C 34.863281 5.082031 34.058594 4.1875 33.015625 4.117188 C 31.808594 4.035156 30.597656 3.996094 29.386719 4 C 23.960938 4 20 7.3125 20 13.398438 L 20 18 L 16 18 C 14.894531 18 14 18.894531 14 20 L 14 24 C 14 25.105469 14.894531 26 16 26 L 20 25.996094 L 20 42 C 20 43.105469 20.894531 44 22 44 L 26 44 C 27.105469 44 28 43.105469 28 42 L 28 25.992188 L 32.347656 25.992188 C 33.363281 25.992188 34.21875 25.230469 34.335938 24.21875 L 34.792969 20.226562 C 34.929688 19.042969 34.003906 18 32.804688 18 Z M 32.804688 18 "/>
</g>
</svg>
